# xmcd CD database file
#
# Track frame offsets:
#	182
#	10892
#	22752
#	36252
#	51130
#	66277
#	78272
#	87092
#	102575
#	116802
#	128250
#	138672
#	148797
#	157950
#	172695
#	186202
#	204432
#	218960
#	233400
#	245147
#	263512
#
# Disc length: 3659 seconds
#
# Revision: 0
# Processed by: cddbd v1.4PL0 Copyright (c) Steve Scherf et al.
# Submitted via: CDex 1.40Beta9
#
DISCID=160e4915
DTITLE=Marty Robbins - Sentimental Favourites
DYEAR=1900
DGENRE=Country
TTITLE0=Unchained Melody
TTITLE1=Yesterday
TTITLE2=All The Way
TTITLE3=The Great Speckled Bird
TTITLE4=As Time Goes By
TTITLE5=Yours
TTITLE6=Beutiful Dreamer
TTITLE7=Try A Little Tenderness
TTITLE8=Beyond The Reef
TTITLE9=Aloha Oe
TTITLE10=Hawaiian Wedding Song
TTITLE11=Can't Help Falling In Love
TTITLE12=September In The Rain
TTITLE13=Some Memories Just Won't Die
TTITLE14=A Little Sentimental
TTITLE15=Hello Heartache
TTITLE16=By The Time I Get To Phoenix
TTITLE17=Have I Told You Lately That I Love You
TTITLE18=Maria (If I Could)
TTITLE19=You Gave Me A Mountain
TTITLE20=Love Is Blue
EXTD=ID3G: 2
EXTT0=
EXTT1=
EXTT2=
EXTT3=
EXTT4=
EXTT5=
EXTT6=
EXTT7=
EXTT8=
EXTT9=
EXTT10=
EXTT11=
EXTT12=
EXTT13=
EXTT14=
EXTT15=
EXTT16=
EXTT17=
EXTT18=
EXTT19=
EXTT20=
PLAYORDER=
